<?xml version="1.0" encoding="UTF-8" standalone="no"?>
<!-- Created with Inkscape (http://www.inkscape.org/) -->

<svg
   sodipodi:docname="logo.svg"
   inkscape:version="1.2.2 (732a01da63, 2022-12-09)"
   xml:space="preserve"
   id="svg24893"
   version="1.1"
   viewBox="0 0 12.490013 14.420288"
   height="14.420288mm"
   width="12.490013mm"
   xmlns:inkscape="http://www.inkscape.org/namespaces/inkscape"
   xmlns:sodipodi="http://sodipodi.sourceforge.net/DTD/sodipodi-0.dtd"
   xmlns="http://www.w3.org/2000/svg"
   xmlns:svg="http://www.w3.org/2000/svg"><sodipodi:namedview
     id="namedview24895"
     pagecolor="#ffffff"
     bordercolor="#666666"
     borderopacity="1.0"
     inkscape:showpageshadow="2"
     inkscape:pageopacity="0.0"
     inkscape:pagecheckerboard="0"
     inkscape:deskcolor="#d1d1d1"
     inkscape:document-units="mm"
     showgrid="false"
     inkscape:zoom="2.5877449"
     inkscape:cx="167.32716"
     inkscape:cy="108.58875"
     inkscape:window-width="2560"
     inkscape:window-height="1369"
     inkscape:window-x="-8"
     inkscape:window-y="-8"
     inkscape:window-maximized="1"
     inkscape:current-layer="layer1" /><defs
     id="defs24890"><rect
   x="366.15784"
   y="118.04491"
   width="484.20276"
   height="283.0892"
   id="rect1132" /><rect
   x="366.15784"
   y="118.04491"
   width="781.10577"
   height="270.36478"
   id="rect1335" /><rect
   x="366.15784"
   y="118.04491"
   width="781.10577"
   height="270.36478"
   id="rect1343" /><rect
   x="366.15784"
   y="118.04491"
   width="781.10577"
   height="270.36478"
   id="rect1355" /><rect
   x="366.15784"
   y="118.04491"
   width="781.10577"
   height="270.36478"
   id="rect1361" /><rect
   x="366.15784"
   y="118.04491"
   width="781.10577"
   height="270.36478"
   id="rect1576" /><rect
   x="366.15784"
   y="118.04491"
   width="781.10577"
   height="270.36478"
   id="rect1588" /><rect
   x="366.15784"
   y="118.04491"
   width="781.10577"
   height="270.36478"
   id="rect1594" /><rect
   x="366.15784"
   y="118.04491"
   width="781.10577"
   height="270.36478"
   id="rect1629" /><clipPath
   clipPathUnits="userSpaceOnUse"
   id="clipPath28398"><rect
     style="opacity:1;fill:#800000;stroke:none;stroke-width:3.35963;stroke-linecap:round;stroke-opacity:1"
     id="rect28400"
     width="279.39999"
     height="215.90004"
     x="-127.84313"
     y="25.367422" /></clipPath><clipPath
   clipPathUnits="userSpaceOnUse"
   id="clipPath28402"><rect
     style="opacity:0.354906;fill:#999999;stroke:none;stroke-width:3.35963;stroke-linecap:round;stroke-opacity:1"
     id="rect28404"
     width="279.39999"
     height="215.90004"
     x="-127.84313"
     y="25.367422" /></clipPath><clipPath
   clipPathUnits="userSpaceOnUse"
   id="clipPath28462"><rect
     style="opacity:0.129436;fill:#800000;stroke:none;stroke-width:2.325;stroke-linecap:round;stroke-opacity:1"
     id="rect28464"
     width="110.31171"
     height="148.93379"
     x="-100.02406"
     y="34.432323" /></clipPath><rect
   x="366.15784"
   y="118.04491"
   width="781.10577"
   height="270.36478"
   id="rect589" /><rect
   x="366.15784"
   y="118.04491"
   width="781.10577"
   height="270.36478"
   id="rect595" /><rect
   x="366.15784"
   y="118.04491"
   width="781.10577"
   height="270.36478"
   id="rect601" />
	
	

		
		
		
		
		
		
		
		
		
		
		
		
		
		
	
		
		
		
		
	<clipPath
   clipPathUnits="userSpaceOnUse"
   id="clipPath2652"><rect
     style="opacity:0.3;fill:#800000;stroke:none;stroke-width:2.325;stroke-linecap:round"
     id="rect2654"
     width="279.39999"
     height="215.90001"
     x="-61.900166"
     y="79.611443" /></clipPath><clipPath
   clipPathUnits="userSpaceOnUse"
   id="clipPath2656"><rect
     style="opacity:0.3;fill:#800000;stroke:none;stroke-width:2.325;stroke-linecap:round"
     id="rect2658"
     width="279.39999"
     height="215.90001"
     x="8.3789978"
     y="9.4523344" /></clipPath></defs><g
     inkscape:label="Livello 1"
     inkscape:groupmode="layer"
     id="layer1"
     transform="translate(375.16923,-65.026935)"><polygon
       class="st0"
       points="183.7,75 209,60.3 104.5,0 0,60.3 25.3,75 104.5,29.3 "
       id="polygon1420"
       transform="matrix(0.05976083,0,0,0.05976083,-375.16923,65.026935)" /><polygon
       class="st1"
       points="104.5,38.6 104.5,29.3 25.3,75 25.3,166.4 33.4,161.7 50.7,151.8 50.7,89.6 104.5,58.5 "
       id="polygon1422"
       transform="matrix(0.05976083,0,0,0.05976083,-375.16923,65.026935)" /><polygon
       class="st2"
       points="209,60.3 183.7,75 183.7,166.4 175.6,161.7 209,181 "
       id="polygon1424"
       transform="matrix(0.05976083,0,0,0.05976083,-375.16923,65.026935)" /><polygon
       class="st3"
       points="183.7,166.4 183.7,75 104.5,29.3 104.5,38.6 104.5,58.5 158.3,89.6 158.3,151.8 175.6,161.7 "
       id="polygon1426"
       transform="matrix(0.05976083,0,0,0.05976083,-375.16923,65.026935)" /><path
       class="st5"
       d="m -364.19116,76.716153 -1.51195,-0.872508 z"
       id="path1430"
       style="stroke-width:0.0597608" /><polygon
       class="st6"
       points="158.3,210.3 183.7,225 183.7,195.6 158.4,181 158.3,181 "
       id="polygon1432"
       transform="matrix(0.05976083,0,0,0.05976083,-375.16923,65.026935)" /><polygon
       class="st6"
       points="104.5,212.1 25.3,166.4 33.4,161.7 25.3,166.4 25.3,75 0,60.3 0,181 104.5,241.3 "
       id="polygon1434"
       transform="matrix(0.05976083,0,0,0.05976083,-375.16923,65.026935)" /><polygon
       class="st2"
       points="104.5,212.1 104.5,241.3 158.3,210.3 158.3,181 "
       id="polygon1436"
       transform="matrix(0.05976083,0,0,0.05976083,-375.16923,65.026935)" /><polygon
       class="st4"
       points="158.4,181 158.3,181 "
       id="polygon1438"
       transform="matrix(0.05976083,0,0,0.05976083,-375.16923,65.026935)" /><polygon
       class="st8"
       points="33.4,161.7 25.3,166.4 104.5,212.1 158.3,181 158.4,181 183.7,195.6 209,181 183.7,166.4 176.5,162.3 158.3,151.8 104.5,182.8 50.7,151.8 "
       id="polygon1442"
       transform="matrix(0.05976083,0,0,0.05976083,-375.16923,65.026935)" /><polygon
       class="st2"
       points="209,210.3 209,181 183.7,195.6 183.7,225 "
       id="polygon1444"
       transform="matrix(0.05976083,0,0,0.05976083,-375.16923,65.026935)" /><path
       class="st9"
       d="M -364.19116,78.473122"
       id="path1446"
       style="stroke-width:0.0597608" /></g><style
     type="text/css"
     id="style617">
	.st0{fill:#E0E0E3;}
	.st1{fill:#FF8200;}
	.st2{fill:#C0C0C3;}
	.st3{fill:#FF5000;}
	.st4{fill:#C2C2C3;}
	.st5{fill:#A2A2A2;}
	.st6{fill:#808083;}
	.st7{fill:#FAA940;}
	.st8{fill:#FFB600;}
	.st9{fill:#4E61AD;}
	.st10{fill:#404043;}
</style><style
     type="text/css"
     id="style711">
	.st0{fill:#E0E0E3;}
	.st1{fill:#FF8200;}
	.st2{fill:#C0C0C3;}
	.st3{fill:#FF5000;}
	.st4{fill:#C2C2C3;}
	.st5{fill:#A2A2A2;}
	.st6{fill:#808083;}
	.st7{fill:#FAA940;}
	.st8{fill:#FFB600;}
	.st9{fill:#4E61AD;}
	.st10{fill:#404043;}
</style><style
     type="text/css"
     id="style2907">
	.st0{fill:#E0E0E3;}
	.st1{fill:#FF8200;}
	.st2{fill:#C0C0C3;}
	.st3{fill:#FF5000;}
	.st4{fill:#C2C2C3;}
	.st5{fill:#A2A2A2;}
	.st6{fill:#808083;}
	.st7{fill:#FAA940;}
	.st8{fill:#FFB600;}
	.st9{fill:#4E61AD;}
	.st10{fill:#404043;}
</style></svg>
