<?xml version="1.0" encoding="UTF-8" standalone="no"?>
<!-- Created with Inkscape (http://www.inkscape.org/) -->

<svg
   sodipodi:docname="logotype.svg"
   inkscape:version="1.2.2 (732a01da63, 2022-12-09)"
   xml:space="preserve"
   id="svg24893"
   version="1.1"
   viewBox="0 0 55.784204 19.465984"
   height="19.465984mm"
   width="55.784203mm"
   inkscape:export-filename="header.png"
   inkscape:export-xdpi="300.95999"
   inkscape:export-ydpi="300.95999"
   xmlns:inkscape="http://www.inkscape.org/namespaces/inkscape"
   xmlns:sodipodi="http://sodipodi.sourceforge.net/DTD/sodipodi-0.dtd"
   xmlns="http://www.w3.org/2000/svg"
   xmlns:svg="http://www.w3.org/2000/svg"><sodipodi:namedview
     id="namedview24895"
     pagecolor="#ffffff"
     bordercolor="#666666"
     borderopacity="1.0"
     inkscape:showpageshadow="2"
     inkscape:pageopacity="0.0"
     inkscape:pagecheckerboard="0"
     inkscape:deskcolor="#d1d1d1"
     inkscape:document-units="mm"
     showgrid="false"
     inkscape:zoom="0.64693624"
     inkscape:cx="618.29896"
     inkscape:cy="272.05154"
     inkscape:window-width="2560"
     inkscape:window-height="1369"
     inkscape:window-x="-8"
     inkscape:window-y="-8"
     inkscape:window-maximized="1"
     inkscape:current-layer="layer1" /><defs
     id="defs24890"><rect
   x="-930.53992"
   y="-1233.5063"
   width="1133.0328"
   height="278.23453"
   id="rect9296" /><rect
   x="366.15784"
   y="118.04491"
   width="484.20276"
   height="283.0892"
   id="rect1132" /><rect
   x="366.15784"
   y="118.04491"
   width="781.10577"
   height="270.36478"
   id="rect1335" /><rect
   x="366.15784"
   y="118.04491"
   width="781.10577"
   height="270.36478"
   id="rect1343" /><rect
   x="366.15784"
   y="118.04491"
   width="781.10577"
   height="270.36478"
   id="rect1355" /><rect
   x="366.15784"
   y="118.04491"
   width="781.10577"
   height="270.36478"
   id="rect1361" /><rect
   x="366.15784"
   y="118.04491"
   width="781.10577"
   height="270.36478"
   id="rect1576" /><rect
   x="366.15784"
   y="118.04491"
   width="781.10577"
   height="270.36478"
   id="rect1588" /><rect
   x="366.15784"
   y="118.04491"
   width="781.10577"
   height="270.36478"
   id="rect1594" /><rect
   x="366.15784"
   y="118.04491"
   width="781.10577"
   height="270.36478"
   id="rect1629" /><clipPath
   clipPathUnits="userSpaceOnUse"
   id="clipPath28398"><rect
     style="opacity:1;fill:#800000;stroke:none;stroke-width:3.35963;stroke-linecap:round;stroke-opacity:1"
     id="rect28400"
     width="279.39999"
     height="215.90004"
     x="-127.84313"
     y="25.367422" /></clipPath><clipPath
   clipPathUnits="userSpaceOnUse"
   id="clipPath28402"><rect
     style="opacity:0.354906;fill:#999999;stroke:none;stroke-width:3.35963;stroke-linecap:round;stroke-opacity:1"
     id="rect28404"
     width="279.39999"
     height="215.90004"
     x="-127.84313"
     y="25.367422" /></clipPath><clipPath
   clipPathUnits="userSpaceOnUse"
   id="clipPath28462"><rect
     style="opacity:0.129436;fill:#800000;stroke:none;stroke-width:2.325;stroke-linecap:round;stroke-opacity:1"
     id="rect28464"
     width="110.31171"
     height="148.93379"
     x="-100.02406"
     y="34.432323" /></clipPath><rect
   x="366.15784"
   y="118.04491"
   width="781.10577"
   height="270.36478"
   id="rect589" /><rect
   x="366.15784"
   y="118.04491"
   width="781.10577"
   height="270.36478"
   id="rect595" /><rect
   x="366.15784"
   y="118.04491"
   width="781.10577"
   height="270.36478"
   id="rect601" />
	
	

		
		
		
		
		
		
		
		
		
		
		
		
		
		
	
		
		
		
		
	<clipPath
   clipPathUnits="userSpaceOnUse"
   id="clipPath2652"><rect
     style="opacity:0.3;fill:#800000;stroke:none;stroke-width:2.325;stroke-linecap:round"
     id="rect2654"
     width="279.39999"
     height="215.90001"
     x="-61.900166"
     y="79.611443" /></clipPath><clipPath
   clipPathUnits="userSpaceOnUse"
   id="clipPath2656"><rect
     style="opacity:0.3;fill:#800000;stroke:none;stroke-width:2.325;stroke-linecap:round"
     id="rect2658"
     width="279.39999"
     height="215.90001"
     x="8.3789978"
     y="9.4523344" /></clipPath><rect
   x="-930.53992"
   y="-1233.5063"
   width="1133.0328"
   height="278.23453"
   id="rect9354" /></defs><g
     inkscape:label="Livello 1"
     inkscape:groupmode="layer"
     id="layer1"
     transform="translate(270.97501,361.64411)"><g
       id="g803"
       transform="matrix(0.0806713,0,0,0.0806713,-262.77479,-360.14514)"><g
         id="g753"
         transform="translate(-101.64979,-18.581144)">
	<g
   id="g741">
		<polygon
   class="st0"
   points="104.5,0 0,60.3 25.3,75 104.5,29.3 183.7,75 209,60.3 "
   id="polygon713" />
		<polygon
   class="st1"
   points="33.4,161.7 50.7,151.8 50.7,89.6 104.5,58.5 104.5,38.6 104.5,29.3 25.3,75 25.3,166.4 "
   id="polygon715" />
		<polygon
   class="st2"
   points="183.7,166.4 175.6,161.7 209,181 209,60.3 183.7,75 "
   id="polygon717" />
		<polygon
   class="st3"
   points="104.5,58.5 158.3,89.6 158.3,151.8 175.6,161.7 183.7,166.4 183.7,75 104.5,29.3 104.5,38.6 "
   id="polygon719" />
		<polygon
   class="st4"
   points=""
   id="polygon721" />
		<path
   class="st5"
   d="M 183.7,195.6 158.4,181 Z"
   id="path723" />
		<polygon
   class="st6"
   points="183.7,195.6 158.4,181 158.3,181 158.3,210.3 183.7,225 "
   id="polygon725" />
		<polygon
   class="st6"
   points="25.3,75 0,60.3 0,181 104.5,241.3 104.5,212.1 25.3,166.4 33.4,161.7 25.3,166.4 "
   id="polygon727" />
		<polygon
   class="st2"
   points="104.5,212.1 104.5,241.3 158.3,210.3 158.3,181 "
   id="polygon729" />
		<polygon
   class="st4"
   points="158.4,181 158.3,181 "
   id="polygon731" />
		<polygon
   class="st7"
   points=""
   id="polygon733" />
		<polygon
   class="st8"
   points="176.5,162.3 158.3,151.8 104.5,182.8 50.7,151.8 33.4,161.7 25.3,166.4 104.5,212.1 158.3,181 158.4,181 183.7,195.6 209,181 183.7,166.4 "
   id="polygon735" />
		<polygon
   class="st2"
   points="209,210.3 209,181 183.7,195.6 183.7,225 "
   id="polygon737" />
		<path
   class="st9"
   d="M 183.7,225"
   id="path739" />
	</g>
	<g
   id="g751">
		<path
   class="st6"
   d="M 268.6,178.6 V 60.3 h 26.7 v 118.3 z"
   id="path743" />
		<path
   class="st6"
   d="m 372.3,57.8 c 33.2,0 61.4,24.2 61.4,61.8 0,37.4 -28.2,61.6 -61.4,61.6 -33.4,0 -61.6,-24.2 -61.6,-61.6 0,-37.6 28.2,-61.8 61.6,-61.8 z m 0,97.3 c 16.4,0 34.1,-11 34.1,-35.7 0,-24.7 -17.7,-35.9 -34.1,-35.9 -16.5,0 -34.2,11.2 -34.2,35.9 0,24.7 17.6,35.7 34.2,35.7 z"
   id="path745" />
		<path
   class="st6"
   d="m 524.2,178.6 -48.7,-77.8 v 77.8 H 449.3 V 60.3 h 32 l 44.4,71.9 V 60.3 H 552 v 118.3 z"
   id="path747" />
		<path
   class="st6"
   d="m 629,57.8 c 33.2,0 61.4,24.2 61.4,61.8 0,15.9 -5,29.2 -13.4,39.4 l 14.5,15.9 -17.4,14.7 -14.5,-16 c -9,5 -19.7,7.7 -30.7,7.7 -33.4,0 -61.6,-24.2 -61.6,-61.6 C 567.4,82 595.6,57.8 629,57.8 Z m 0,97.3 c 4,0 8,-0.7 12,-2 l -17.4,-19 17.5,-14.7 17.4,19 c 2.8,-5.2 4.5,-11.4 4.5,-19 0,-24.7 -17.7,-35.9 -34.1,-35.9 -16.5,0 -34.2,11.2 -34.2,35.9 0.1,24.7 17.8,35.7 34.3,35.7 z"
   id="path749" />
	</g>
</g></g></g><style
     type="text/css"
     id="style617">
	.st0{fill:#E0E0E3;}
	.st1{fill:#FF8200;}
	.st2{fill:#C0C0C3;}
	.st3{fill:#FF5000;}
	.st4{fill:#C2C2C3;}
	.st5{fill:#A2A2A2;}
	.st6{fill:#808083;}
	.st7{fill:#FAA940;}
	.st8{fill:#FFB600;}
	.st9{fill:#4E61AD;}
	.st10{fill:#404043;}
</style><style
     type="text/css"
     id="style711">
	.st0{fill:#E0E0E3;}
	.st1{fill:#FF8200;}
	.st2{fill:#C0C0C3;}
	.st3{fill:#FF5000;}
	.st4{fill:#C2C2C3;}
	.st5{fill:#A2A2A2;}
	.st6{fill:#808083;}
	.st7{fill:#FAA940;}
	.st8{fill:#FFB600;}
	.st9{fill:#4E61AD;}
	.st10{fill:#404043;}
</style><style
     type="text/css"
     id="style2907">
	.st0{fill:#E0E0E3;}
	.st1{fill:#FF8200;}
	.st2{fill:#C0C0C3;}
	.st3{fill:#FF5000;}
	.st4{fill:#C2C2C3;}
	.st5{fill:#A2A2A2;}
	.st6{fill:#808083;}
	.st7{fill:#FAA940;}
	.st8{fill:#FFB600;}
	.st9{fill:#4E61AD;}
	.st10{fill:#404043;}
</style></svg>
