<?xml version="1.0" encoding="UTF-8" standalone="no"?>
<!-- Created with Inkscape (http://www.inkscape.org/) -->

<svg
   sodipodi:docname="waveTopLeft.svg"
   inkscape:version="1.2.2 (732a01da63, 2022-12-09)"
   xml:space="preserve"
   id="svg24893"
   version="1.1"
   viewBox="0 0 73.007148 112.49938"
   height="112.49938mm"
   width="73.007149mm"
   xmlns:inkscape="http://www.inkscape.org/namespaces/inkscape"
   xmlns:sodipodi="http://sodipodi.sourceforge.net/DTD/sodipodi-0.dtd"
   xmlns="http://www.w3.org/2000/svg"
   xmlns:svg="http://www.w3.org/2000/svg"><sodipodi:namedview
     id="namedview24895"
     pagecolor="#ffffff"
     bordercolor="#666666"
     borderopacity="1.0"
     inkscape:showpageshadow="2"
     inkscape:pageopacity="0.0"
     inkscape:pagecheckerboard="0"
     inkscape:deskcolor="#d1d1d1"
     inkscape:document-units="mm"
     showgrid="false"
     inkscape:zoom="0.457453"
     inkscape:cx="-102.7428"
     inkscape:cy="336.64661"
     inkscape:window-width="2560"
     inkscape:window-height="1369"
     inkscape:window-x="-8"
     inkscape:window-y="-8"
     inkscape:window-maximized="1"
     inkscape:current-layer="layer1" /><defs
     id="defs24890"><rect
   x="366.15784"
   y="118.04491"
   width="484.20276"
   height="283.0892"
   id="rect1132" /><rect
   x="366.15784"
   y="118.04491"
   width="781.10577"
   height="270.36478"
   id="rect1335" /><rect
   x="366.15784"
   y="118.04491"
   width="781.10577"
   height="270.36478"
   id="rect1343" /><rect
   x="366.15784"
   y="118.04491"
   width="781.10577"
   height="270.36478"
   id="rect1355" /><rect
   x="366.15784"
   y="118.04491"
   width="781.10577"
   height="270.36478"
   id="rect1361" /><rect
   x="366.15784"
   y="118.04491"
   width="781.10577"
   height="270.36478"
   id="rect1576" /><rect
   x="366.15784"
   y="118.04491"
   width="781.10577"
   height="270.36478"
   id="rect1588" /><rect
   x="366.15784"
   y="118.04491"
   width="781.10577"
   height="270.36478"
   id="rect1594" /><rect
   x="366.15784"
   y="118.04491"
   width="781.10577"
   height="270.36478"
   id="rect1629" /><clipPath
   clipPathUnits="userSpaceOnUse"
   id="clipPath28398"><rect
     style="opacity:1;fill:#800000;stroke:none;stroke-width:3.35963;stroke-linecap:round;stroke-opacity:1"
     id="rect28400"
     width="279.39999"
     height="215.90004"
     x="-127.84313"
     y="25.367422" /></clipPath><clipPath
   clipPathUnits="userSpaceOnUse"
   id="clipPath28402"><rect
     style="opacity:0.354906;fill:#999999;stroke:none;stroke-width:3.35963;stroke-linecap:round;stroke-opacity:1"
     id="rect28404"
     width="279.39999"
     height="215.90004"
     x="-127.84313"
     y="25.367422" /></clipPath><clipPath
   clipPathUnits="userSpaceOnUse"
   id="clipPath28462"><rect
     style="opacity:0.129436;fill:#800000;stroke:none;stroke-width:2.325;stroke-linecap:round;stroke-opacity:1"
     id="rect28464"
     width="110.31171"
     height="148.93379"
     x="-100.02406"
     y="34.432323" /></clipPath><rect
   x="366.15784"
   y="118.04491"
   width="781.10577"
   height="270.36478"
   id="rect589" /><rect
   x="366.15784"
   y="118.04491"
   width="781.10577"
   height="270.36478"
   id="rect595" /><rect
   x="366.15784"
   y="118.04491"
   width="781.10577"
   height="270.36478"
   id="rect601" />
	
	

		
		
		
		
		
		
		
		
		
		
		
		
		
		
	
		
		
		
		
	<clipPath
   clipPathUnits="userSpaceOnUse"
   id="clipPath2652"><rect
     style="opacity:0.3;fill:#800000;stroke:none;stroke-width:2.325;stroke-linecap:round"
     id="rect2654"
     width="279.39999"
     height="215.90001"
     x="-61.900166"
     y="79.611443" /></clipPath><clipPath
   clipPathUnits="userSpaceOnUse"
   id="clipPath2656"><rect
     style="opacity:0.3;fill:#800000;stroke:none;stroke-width:2.325;stroke-linecap:round"
     id="rect2658"
     width="279.39999"
     height="215.90001"
     x="8.3789978"
     y="9.4523344" /></clipPath></defs><g
     inkscape:label="Livello 1"
     inkscape:groupmode="layer"
     id="layer1"
     transform="translate(127.84313,-25.367426)"><g
       id="g30089"
       style="opacity:0.3;stroke:#1d2f48;stroke-opacity:1"
       transform="translate(-65.942967,-54.244017)"
       clip-path="url(#clipPath2652)"><path
         d="m -64.67,188.637 c 8.9982,-2.806 15.0924,-9.375 17.7451,-16.904 3.972,-11.273 0.2276,-24.696 -13.0382,-30.852 -2.4985,-1.159 -4.5226,-2.413 -6.1326,-3.706 -9.8268,-7.892 -4.2266,-17.247 3.1079,-15.519 0.6042,0.142 1.2202,0.36 1.8404,0.66 5.0143,2.424 9.5547,4.224 13.6627,5.484 6.5634,2.013 12.023,2.648 16.5484,2.251 10.1652,-0.892 15.6167,-6.992 18.276,-14.381 3.00964,-8.362 2.443,-18.3748 1.0854,-24.3561 -0.0985,-0.4343 -0.2013,-0.8473 -0.3071,-1.2369 -1.5514,-5.7109 2.61162,-7.2791 7.63899,-7.9984 5.7299,-0.8199 12.58266,-0.5371 13.37776,-4.0285 1.38185,-3.667 1.96135,-7.576 1.81895,-11.4512"
         style="fill:none;stroke:#1d2f48;stroke-width:0.264583px;stroke-linecap:butt;stroke-linejoin:miter;stroke-opacity:1"
         id="path30069" /><path
         d="m -65.0877,188.67 c 8.821,-1.881 15.6254,-7.966 18.4893,-15.569 4.5778,-11.588 -0.8965,-24.283 -13.8933,-30.593 -2.4969,-1.223 -4.5228,-2.533 -6.0815,-3.893 -9.1891,-7.811 -4.2116,-17.301 3.0743,-16.368 0.6036,0.074 1.2192,0.227 1.8397,0.463 5.012,1.913 9.6742,3.934 13.7274,5.47 6.2958,2.267 11.4401,3.567 16.1946,3.335 10.041,-0.627 15.8997,-6.992 18.087,-14.624 2.5134,-8.409 1.5942,-18.3 0.6902,-24.6085 -0.0716,-0.4386 -0.1442,-0.8539 -0.2172,-1.2443 -1.1179,-5.6229 3.2105,-6.9388 8.21656,-7.5318 5.526321,-0.6842 12.31771,-0.7272 13.51766,-4.225 1.69528,-3.6328 2.49188,-7.5705 2.05928,-11.3651"
         style="fill:none;stroke:#1d2f48;stroke-width:0.264583px;stroke-linecap:butt;stroke-linejoin:miter;stroke-opacity:1"
         id="path30071" /><path
         d="m -65.5054,188.702 c 8.6439,-0.955 16.1584,-6.555 19.2336,-14.234 5.1835,-11.902 -2.0207,-23.869 -14.7485,-30.334 -2.4953,-1.286 -4.5229,-2.653 -6.0303,-4.079 -8.5514,-7.73 -4.1967,-17.356 3.0406,-17.217 0.6029,0.006 1.2183,0.094 1.8391,0.267 5.0096,1.401 9.7937,3.643 13.7919,5.454 6.0283,2.521 10.8573,4.487 15.841,4.42 9.9166,-0.363 16.1826,-6.991 17.8978,-14.867 2.0172,-8.455 0.7455,-18.2253 0.2951,-24.8609 -0.0446,-0.4429 -0.0872,-0.8604 -0.1274,-1.2516 -0.6844,-5.535 3.8095,-6.5986 8.79423,-7.0652 C -0.355532,84.3857 6.37449,84.017 7.97929,80.5128 9.98793,76.914 11.0017,72.9477 10.2789,69.2337"
         style="fill:none;stroke:#1d2f48;stroke-width:0.264583px;stroke-linecap:butt;stroke-linejoin:miter;stroke-opacity:1"
         id="path30073" /><path
         d="m -65.9231,188.734 c 8.4668,-0.029 16.6914,-5.144 19.9778,-12.898 5.7894,-12.218 -3.1448,-23.457 -15.6036,-30.076 -2.4937,-1.349 -4.523,-2.772 -5.9791,-4.266 -7.9138,-7.647 -4.1818,-17.409 3.007,-18.065 0.6021,-0.062 1.2172,-0.038 1.8383,0.071 5.0073,0.889 9.9132,3.353 13.8565,5.439 5.7608,2.775 10.2746,5.406 15.4874,5.503 9.7923,-0.097 16.4655,-6.99 17.7087,-15.108 1.5209,-8.502 -0.1033,-18.152 -0.1002,-25.1143 -0.0176,-0.4472 -0.03,-0.867 -0.0374,-1.259 -0.251,-5.4469 4.4084,-6.2584 9.37179,-6.5986 5.11916,-0.4129 11.78782,-1.1074 13.79746,-4.618 2.32205,-3.5646 3.55295,-7.5597 2.53998,-11.193"
         style="fill:none;stroke:#1d2f48;stroke-width:0.264583px;stroke-linecap:butt;stroke-linejoin:miter;stroke-opacity:1"
         id="path30075" /><path
         d="m -66.3408,188.766 c 8.2897,0.897 17.2244,-3.733 20.7221,-11.562 6.3951,-12.533 -4.269,-23.044 -16.4588,-29.817 -2.4921,-1.412 -4.5232,-2.893 -5.928,-4.453 -7.276,-7.566 -4.1668,-17.463 2.9734,-18.914 0.6014,-0.13 1.2162,-0.171 1.8376,-0.126 5.005,0.377 10.0328,3.063 13.9212,5.424 5.4932,3.029 9.6917,6.326 15.1336,6.588 9.6681,0.167 16.7485,-6.989 17.5197,-15.351 1.0246,-8.549 -0.9521,-18.077 -0.4954,-25.3667 0.0094,-0.4515 0.027,-0.8736 0.0525,-1.2664 0.1824,-5.3589 5.0073,-5.9181 9.94936,-6.1319 4.91558,-0.2773 11.52287,-1.2975 13.93736,-4.8145 2.63545,-3.5306 4.08348,-7.5543 2.78032,-11.1071"
         style="fill:none;stroke:#1d2f48;stroke-width:0.264583px;stroke-linecap:butt;stroke-linejoin:miter;stroke-opacity:1"
         id="path30077" /><path
         d="m -66.7586,188.798 c 8.1126,1.823 17.7575,-2.322 21.4664,-10.227 7.0009,-12.847 -5.3931,-22.63 -17.3139,-29.558 -2.4905,-1.475 -4.5233,-3.012 -5.8768,-4.639 -6.6383,-7.485 -4.1519,-17.518 2.9397,-19.763 0.6007,-0.198 1.2152,-0.304 1.837,-0.322 5.0026,-0.135 10.1522,2.772 13.9857,5.409 5.2256,3.282 9.1089,7.245 14.78,7.672 9.5437,0.432 17.0313,-6.988 17.3306,-15.594 0.5284,-8.595 -1.8009,-18.002 -0.8906,-25.6191 0.0364,-0.4558 0.0841,-0.8802 0.1423,-1.2738 0.6159,-5.2709 5.6062,-5.5779 10.52703,-5.6653 4.712,-0.1416 11.25791,-1.4875 14.07726,-5.011 2.94885,-3.4964 4.61401,-7.5488 3.02066,-11.021"
         style="fill:none;stroke:#1d2f48;stroke-width:0.264583px;stroke-linecap:butt;stroke-linejoin:miter;stroke-opacity:1"
         id="path30079" /><path
         d="m -67.1763,188.83 c 7.9355,2.749 18.2905,-0.911 22.2107,-8.891 7.6067,-13.162 -6.5173,-22.218 -18.1691,-29.299 -2.4889,-1.539 -4.5235,-3.133 -5.8256,-4.826 -6.0007,-7.403 -4.137,-17.572 2.906,-20.612 0.6,-0.266 1.2142,-0.437 1.8363,-0.518 5.0003,-0.647 10.2717,2.481 14.0504,5.393 4.958,3.537 8.5261,8.165 14.4263,8.757 9.4194,0.697 17.3142,-6.988 17.1414,-15.837 0.0322,-8.641 -2.6496,-17.927 -1.2858,-25.8715 0.0634,-0.4601 0.1412,-0.8867 0.2323,-1.2811 1.0494,-5.183 6.2051,-5.2377 11.10459,-5.1987 4.50842,-0.0061 10.99297,-1.6777 14.21717,-5.2075 3.26225,-3.4624 5.14454,-7.5434 3.261,-10.935"
         style="fill:none;stroke:#1d2f48;stroke-width:0.264583px;stroke-linecap:butt;stroke-linejoin:miter;stroke-opacity:1"
         id="path30081" /><path
         d="m -67.594,188.862 c 7.7584,3.675 18.8235,0.5 22.9549,-7.555 8.2125,-13.477 -7.6414,-21.805 -19.0242,-29.041 -2.4873,-1.602 -4.5236,-3.252 -5.7744,-5.013 -5.363,-7.321 -4.1221,-17.625 2.8723,-21.46 0.5994,-0.334 1.2132,-0.57 1.8357,-0.715 4.9979,-1.158 10.3912,2.191 14.1149,5.379 4.6905,3.79 7.9433,9.084 14.0726,9.841 9.2951,0.961 17.5972,-6.987 16.9524,-16.08 -0.4641,-8.688 -3.4984,-17.853 -1.681,-26.1239 0.0904,-0.4645 0.1983,-0.8933 0.3222,-1.2885 1.4828,-5.095 6.804,-4.8974 11.68216,-4.7321 4.30484,0.1296 10.72802,-1.8677 14.35707,-5.4039 3.57565,-3.4283 5.67507,-7.538 3.50134,-10.849"
         style="fill:none;stroke:#1d2f48;stroke-width:0.264583px;stroke-linecap:butt;stroke-linejoin:miter;stroke-opacity:1"
         id="path30083" /><path
         d="m -68.0117,188.894 c 7.5813,4.601 19.3565,1.911 23.6992,-6.22 8.8182,-13.792 -8.7656,-21.391 -19.8794,-28.782 -2.4857,-1.665 -4.5237,-3.372 -5.7233,-5.199 -4.7252,-7.239 -4.1071,-17.68 2.8387,-22.309 0.5987,-0.402 1.2122,-0.702 1.835,-0.911 4.9956,-1.671 10.5107,1.901 14.1796,5.364 4.4229,4.044 7.3604,10.003 13.7189,10.924 9.1708,1.227 17.8801,-6.986 16.7633,-16.321 -0.9604,-8.735 -4.3472,-17.779 -2.0762,-26.3773 0.1174,-0.4688 0.2553,-0.8999 0.4121,-1.2959 1.9162,-5.007 7.4029,-4.5572 12.25973,-4.2654 4.10126,0.2652 10.463068,-2.0578 14.49696,-5.6005 3.88906,-3.3942 6.20561,-7.5325 3.74169,-10.763"
         style="fill:none;stroke:#1d2f48;stroke-width:0.264583px;stroke-linecap:butt;stroke-linejoin:miter;stroke-opacity:1"
         id="path30085" /><path
         d="m -68.4295,188.927 c 7.4042,5.526 19.8897,3.321 24.4435,-4.885 9.4241,-14.107 -9.8897,-20.979 -20.7345,-28.523 -2.4841,-1.729 -4.5239,-3.492 -5.6721,-5.386 -4.0876,-7.158 -4.0922,-17.734 2.805,-23.158 0.598,-0.47 1.2112,-0.835 1.8344,-1.108 4.9932,-2.182 10.6302,1.611 14.2441,5.349 4.1554,4.298 6.7777,10.923 13.3653,12.009 9.0465,1.492 18.163,-6.985 16.5741,-16.564 -1.4565,-8.782 -5.1959,-17.704 -2.4714,-26.63 0.1444,-0.4728 0.3125,-0.9062 0.502,-1.303 2.3497,-4.919 8.0019,-4.2169 12.8374,-3.7988 3.89767,0.4009 10.198116,-2.2479 14.63686,-5.7969 4.20246,-3.3601 6.73614,-7.5272 3.98203,-10.677"
         style="fill:none;stroke:#1d2f48;stroke-width:0.264583px;stroke-linecap:butt;stroke-linejoin:miter;stroke-opacity:1"
         id="path30087" /></g></g><style
     type="text/css"
     id="style617">
	.st0{fill:#E0E0E3;}
	.st1{fill:#FF8200;}
	.st2{fill:#C0C0C3;}
	.st3{fill:#FF5000;}
	.st4{fill:#C2C2C3;}
	.st5{fill:#A2A2A2;}
	.st6{fill:#808083;}
	.st7{fill:#FAA940;}
	.st8{fill:#FFB600;}
	.st9{fill:#4E61AD;}
	.st10{fill:#404043;}
</style><style
     type="text/css"
     id="style711">
	.st0{fill:#E0E0E3;}
	.st1{fill:#FF8200;}
	.st2{fill:#C0C0C3;}
	.st3{fill:#FF5000;}
	.st4{fill:#C2C2C3;}
	.st5{fill:#A2A2A2;}
	.st6{fill:#808083;}
	.st7{fill:#FAA940;}
	.st8{fill:#FFB600;}
	.st9{fill:#4E61AD;}
	.st10{fill:#404043;}
</style><style
     type="text/css"
     id="style2907">
	.st0{fill:#E0E0E3;}
	.st1{fill:#FF8200;}
	.st2{fill:#C0C0C3;}
	.st3{fill:#FF5000;}
	.st4{fill:#C2C2C3;}
	.st5{fill:#A2A2A2;}
	.st6{fill:#808083;}
	.st7{fill:#FAA940;}
	.st8{fill:#FFB600;}
	.st9{fill:#4E61AD;}
	.st10{fill:#404043;}
</style></svg>
