<?xml version="1.0" encoding="UTF-8" standalone="no"?>
<!-- Created with Inkscape (http://www.inkscape.org/) -->

<svg
   sodipodi:docname="waveBottomRight.svg"
   inkscape:version="1.2.2 (732a01da63, 2022-12-09)"
   xml:space="preserve"
   id="svg24893"
   version="1.1"
   viewBox="0 0 73.007148 112.49938"
   height="112.49938mm"
   width="73.007149mm"
   xmlns:inkscape="http://www.inkscape.org/namespaces/inkscape"
   xmlns:sodipodi="http://sodipodi.sourceforge.net/DTD/sodipodi-0.dtd"
   xmlns="http://www.w3.org/2000/svg"
   xmlns:svg="http://www.w3.org/2000/svg"><sodipodi:namedview
     id="namedview24895"
     pagecolor="#ffffff"
     bordercolor="#666666"
     borderopacity="1.0"
     inkscape:showpageshadow="2"
     inkscape:pageopacity="0.0"
     inkscape:pagecheckerboard="0"
     inkscape:deskcolor="#d1d1d1"
     inkscape:document-units="mm"
     showgrid="false"
     inkscape:zoom="0.32346812"
     inkscape:cx="412.71455"
     inkscape:cy="111.29381"
     inkscape:window-width="2560"
     inkscape:window-height="1369"
     inkscape:window-x="-8"
     inkscape:window-y="-8"
     inkscape:window-maximized="1"
     inkscape:current-layer="layer1" /><defs
     id="defs24890"><rect
   x="366.15784"
   y="118.04491"
   width="484.20276"
   height="283.0892"
   id="rect1132" /><rect
   x="366.15784"
   y="118.04491"
   width="781.10577"
   height="270.36478"
   id="rect1335" /><rect
   x="366.15784"
   y="118.04491"
   width="781.10577"
   height="270.36478"
   id="rect1343" /><rect
   x="366.15784"
   y="118.04491"
   width="781.10577"
   height="270.36478"
   id="rect1355" /><rect
   x="366.15784"
   y="118.04491"
   width="781.10577"
   height="270.36478"
   id="rect1361" /><rect
   x="366.15784"
   y="118.04491"
   width="781.10577"
   height="270.36478"
   id="rect1576" /><rect
   x="366.15784"
   y="118.04491"
   width="781.10577"
   height="270.36478"
   id="rect1588" /><rect
   x="366.15784"
   y="118.04491"
   width="781.10577"
   height="270.36478"
   id="rect1594" /><rect
   x="366.15784"
   y="118.04491"
   width="781.10577"
   height="270.36478"
   id="rect1629" /><clipPath
   clipPathUnits="userSpaceOnUse"
   id="clipPath28398"><rect
     style="opacity:1;fill:#800000;stroke:none;stroke-width:3.35963;stroke-linecap:round;stroke-opacity:1"
     id="rect28400"
     width="279.39999"
     height="215.90004"
     x="-127.84313"
     y="25.367422" /></clipPath><clipPath
   clipPathUnits="userSpaceOnUse"
   id="clipPath28402"><rect
     style="opacity:0.354906;fill:#999999;stroke:none;stroke-width:3.35963;stroke-linecap:round;stroke-opacity:1"
     id="rect28404"
     width="279.39999"
     height="215.90004"
     x="-127.84313"
     y="25.367422" /></clipPath><clipPath
   clipPathUnits="userSpaceOnUse"
   id="clipPath28462"><rect
     style="opacity:0.129436;fill:#800000;stroke:none;stroke-width:2.325;stroke-linecap:round;stroke-opacity:1"
     id="rect28464"
     width="110.31171"
     height="148.93379"
     x="-100.02406"
     y="34.432323" /></clipPath><rect
   x="366.15784"
   y="118.04491"
   width="781.10577"
   height="270.36478"
   id="rect589" /><rect
   x="366.15784"
   y="118.04491"
   width="781.10577"
   height="270.36478"
   id="rect595" /><rect
   x="366.15784"
   y="118.04491"
   width="781.10577"
   height="270.36478"
   id="rect601" />
	
	

		
		
		
		
		
		
		
		
		
		
		
		
		
		
	
		
		
		
		
	<clipPath
   clipPathUnits="userSpaceOnUse"
   id="clipPath2652"><rect
     style="opacity:0.3;fill:#800000;stroke:none;stroke-width:2.325;stroke-linecap:round"
     id="rect2654"
     width="279.39999"
     height="215.90001"
     x="-61.900166"
     y="79.611443" /></clipPath><clipPath
   clipPathUnits="userSpaceOnUse"
   id="clipPath2656"><rect
     style="opacity:0.3;fill:#800000;stroke:none;stroke-width:2.325;stroke-linecap:round"
     id="rect2658"
     width="279.39999"
     height="215.90001"
     x="8.3789978"
     y="9.4523344" /></clipPath></defs><g
     inkscape:label="Livello 1"
     inkscape:groupmode="layer"
     id="layer1"
     transform="translate(127.84313,-25.367426)"><g
       id="line26251"
       style="opacity:0.354906" /><g
       id="line26253"
       style="opacity:0.354906" /><g
       id="line26255"
       style="opacity:0.354906" /><g
       id="line26257"
       style="opacity:0.354906" /><g
       id="line26259"
       style="opacity:0.354906" /><g
       id="line26261"
       style="opacity:0.354906" /><g
       id="line26263"
       style="opacity:0.354906" /><g
       id="line26265"
       style="opacity:0.354906" /><g
       id="line26267"
       style="opacity:0.354906" /><g
       id="line26269"
       style="opacity:0.354906" /><g
       id="line26271"
       style="opacity:0.354906" /><g
       id="line26273"
       style="opacity:0.354906" /><g
       id="line26275"
       style="opacity:0.354906" /><g
       id="line26277"
       style="opacity:0.354906" /><g
       id="line26279"
       style="opacity:0.354906" /><g
       id="line26281"
       style="opacity:0.354906" /><g
       id="line26283"
       style="opacity:0.354906" /><g
       id="line26285"
       style="opacity:0.354906" /><g
       id="line26287"
       style="opacity:0.354906" /><g
       id="line26289"
       style="opacity:0.354906" /><g
       id="line26291"
       style="opacity:0.354906" /><g
       id="line26293"
       style="opacity:0.354906" /><g
       id="line26295"
       style="opacity:0.354906" /><g
       id="line26297"
       style="opacity:0.354906" /><g
       id="line26299"
       style="opacity:0.354906" /><g
       id="line26301"
       style="opacity:0.354906" /><g
       id="line26303"
       style="opacity:0.354906" /><g
       id="line26305"
       style="opacity:0.354906" /><g
       id="line26307"
       style="opacity:0.354906" /><g
       id="line26309"
       style="opacity:0.354906" /><g
       id="line26311"
       style="opacity:0.354906" /><g
       id="line26313"
       style="opacity:0.354906" /><g
       id="line26315"
       style="opacity:0.354906" /><g
       id="line26317"
       style="opacity:0.354906" /><g
       id="line26319"
       style="opacity:0.354906" /><g
       id="line26321"
       style="opacity:0.354906" /><g
       id="line26323"
       style="opacity:0.354906" /><g
       id="line26325"
       style="opacity:0.354906" /><g
       id="line26327"
       style="opacity:0.354906" /><g
       id="line26329"
       style="opacity:0.354906" /><g
       id="line26331"
       style="opacity:0.354906" /><g
       id="line26333"
       style="opacity:0.354906" /><g
       id="line26335"
       style="opacity:0.354906" /><g
       id="line26337"
       style="opacity:0.354906" /><g
       id="line26339"
       style="opacity:0.354906" /><g
       id="line26341"
       style="opacity:0.354906" /><g
       id="line26343"
       style="opacity:0.354906" /><g
       id="line26345"
       style="opacity:0.354906" /><g
       id="line26347"
       style="opacity:0.354906" /><g
       id="line26349"
       style="opacity:0.354906" /><g
       id="line26351"
       style="opacity:0.354906" /><g
       id="line26353"
       style="opacity:0.354906" /><g
       id="line26355"
       style="opacity:0.354906" /><g
       id="line26357"
       style="opacity:0.354906" /><g
       id="line26359"
       style="opacity:0.354906" /><g
       id="line26361"
       style="opacity:0.354906" /><g
       id="line26363"
       style="opacity:0.354906" /><g
       id="line26365"
       style="opacity:0.354906" /><g
       id="line26367"
       style="opacity:0.354906" /><g
       id="line26369"
       style="opacity:0.354906" /><g
       id="line26371"
       style="opacity:0.354906" /><g
       id="line26373"
       style="opacity:0.354906" /><g
       id="line26375"
       style="opacity:0.354906" /><g
       id="line26377"
       style="opacity:0.354906" /><g
       id="line26379"
       style="opacity:0.354906" /><g
       id="g42910"
       transform="translate(-342.61497,-80.077198)"
       style="opacity:0.3;stroke:#1d2f48;stroke-opacity:1"
       clip-path="url(#clipPath2656)"><path
         d="m 303.111,104.251 c -7.32,-5.6373 -37.986,10.582 -35.866,25 1.911,13.001 25.987,5.329 38.861,10.093 2.592,0.959 4.73,2.423 6.141,4.661 4.401,6.977 9.893,20.708 -3.175,24.544 -4.917,1.443 -11.227,-0.721 -18.031,-4.028 -11.281,-5.481 -23.923,-14.104 -33.836,-14.642 -5.394,-0.139 -12.942,0.609 -15.227,5.498 -5.776,12.355 14.29,25.553 16.977,38.439 0.479,2.295 0.406,4.58 -0.463,6.849 -3.575,9.339 -25.014,9.086 -35.998,12.117 -5.808,1.602 -8.693,4.123 -4.469,9.465"
         style="fill:none;stroke:#1d2f48;stroke-width:0.264583px;stroke-linecap:butt;stroke-linejoin:miter;stroke-opacity:1"
         id="path42890" /><path
         d="m 302.693,104.277 c -7.843,-4.6165 -35.878,10.944 -34.059,24.92 1.642,12.575 23.534,6.786 36.118,11.571 2.504,0.949 4.576,2.348 5.976,4.434 4.918,6.875 9.542,19.731 -3.077,23.196 -4.744,1.303 -10.829,-0.682 -17.43,-3.795 -11.236,-5.252 -23.367,-12.993 -32.835,-13.347 -5.298,-0.029 -12.369,0.847 -14.658,5.474 -5.893,11.814 12.108,24.992 14.719,37.317 0.475,2.236 0.403,4.438 -0.419,6.608 -3.477,9.217 -24.355,9.237 -34.27,12.553 -5.322,1.83 -8.067,4.207 -4.303,9.386"
         style="fill:none;stroke:#1d2f48;stroke-width:0.264583px;stroke-linecap:butt;stroke-linejoin:miter;stroke-opacity:1"
         id="path42892" /><path
         d="m 302.275,104.303 c -8.365,-3.596 -33.77,11.306 -32.251,24.84 1.373,12.148 21.08,8.243 33.374,13.05 2.416,0.939 4.422,2.272 5.811,4.207 5.435,6.772 9.191,18.752 -2.978,21.847 -4.571,1.164 -10.432,-0.643 -16.83,-3.562 -11.19,-5.022 -22.812,-11.881 -31.835,-12.052 -5.2,0.08 -11.796,1.085 -14.087,5.451 -6.01,11.272 9.924,24.429 12.46,36.195 0.471,2.175 0.4,4.296 -0.375,6.366 -3.379,9.094 -23.696,9.389 -32.543,12.99 -4.836,2.056 -7.44,4.289 -4.136,9.306"
         style="fill:none;stroke:#1d2f48;stroke-width:0.264583px;stroke-linecap:butt;stroke-linejoin:miter;stroke-opacity:1"
         id="path42894" /><path
         d="m 301.857,104.328 c -8.888,-2.574 -31.661,11.668 -30.443,24.761 1.103,11.722 18.625,9.701 30.63,14.528 2.328,0.929 4.268,2.197 5.646,3.981 5.952,6.669 8.841,17.774 -2.88,20.498 -4.398,1.024 -10.034,-0.603 -16.229,-3.329 -11.145,-4.792 -22.257,-10.77 -30.835,-10.758 -5.103,0.191 -11.223,1.323 -13.517,5.428 -6.126,10.731 7.742,23.868 10.201,35.074 0.469,2.115 0.398,4.153 -0.331,6.124 -3.28,8.972 -23.037,9.54 -30.814,13.426 -4.351,2.284 -6.814,4.373 -3.971,9.226"
         style="fill:none;stroke:#1d2f48;stroke-width:0.264583px;stroke-linecap:butt;stroke-linejoin:miter;stroke-opacity:1"
         id="path42896" /><path
         d="m 301.439,104.354 c -9.411,-1.553 -29.553,12.03 -28.635,24.681 0.833,11.295 16.171,11.158 27.887,16.006 2.239,0.919 4.114,2.122 5.479,3.754 6.47,6.567 8.491,16.797 -2.781,19.15 -4.224,0.885 -9.636,-0.564 -15.628,-3.096 -11.099,-4.562 -21.701,-9.658 -29.834,-9.463 -5.006,0.3 -10.65,1.561 -12.948,5.404 -6.242,10.19 5.559,23.306 7.943,33.953 0.465,2.055 0.395,4.01 -0.287,5.882 -3.182,8.85 -22.378,9.691 -29.086,13.863 -3.865,2.51 -6.188,4.456 -3.805,9.146"
         style="fill:none;stroke:#1d2f48;stroke-width:0.264583px;stroke-linecap:butt;stroke-linejoin:miter;stroke-opacity:1"
         id="path42898" /><path
         d="m 301.02,104.38 c -9.933,-0.532 -27.444,12.392 -26.827,24.601 0.565,10.869 13.718,12.615 25.144,17.485 2.151,0.908 3.96,2.047 5.314,3.527 6.987,6.464 8.14,15.819 -2.682,17.801 -4.052,0.745 -9.239,-0.525 -15.028,-2.863 -11.053,-4.333 -21.146,-8.546 -28.834,-8.168 -4.909,0.41 -10.077,1.799 -12.378,5.38 -6.358,9.649 3.377,22.745 5.685,32.832 0.462,1.995 0.392,3.868 -0.243,5.64 -3.084,8.728 -21.719,9.842 -27.358,14.299 -3.38,2.738 -5.562,4.539 -3.639,9.067"
         style="fill:none;stroke:#1d2f48;stroke-width:0.264583px;stroke-linecap:butt;stroke-linejoin:miter;stroke-opacity:1"
         id="path42900" /><path
         d="m 300.602,104.406 c -10.456,0.489 -25.336,12.754 -25.019,24.521 0.295,10.442 11.264,14.072 22.4,18.963 2.063,0.898 3.806,1.972 5.149,3.301 7.504,6.361 7.789,14.84 -2.584,16.452 -3.879,0.606 -8.841,-0.486 -14.427,-2.63 -11.008,-4.103 -20.59,-7.435 -27.834,-6.874 -4.811,0.52 -9.504,2.037 -11.807,5.357 -6.475,9.108 1.193,22.183 3.426,31.711 0.458,1.935 0.389,3.725 -0.2,5.398 -2.985,8.605 -21.059,9.994 -25.63,14.736 -2.893,2.964 -4.935,4.622 -3.472,8.987"
         style="fill:none;stroke:#1d2f48;stroke-width:0.264583px;stroke-linecap:butt;stroke-linejoin:miter;stroke-opacity:1"
         id="path42902" /><path
         d="m 300.184,104.432 c -10.978,1.51 -23.227,13.115 -23.211,24.441 0.025,10.016 8.81,15.53 19.656,20.441 1.975,0.888 3.652,1.897 4.984,3.075 8.021,6.258 7.438,13.862 -2.486,15.104 -3.705,0.465 -8.443,-0.448 -13.826,-2.398 -10.962,-3.873 -20.035,-6.323 -26.833,-5.579 -4.715,0.63 -8.931,2.275 -11.238,5.334 -6.592,8.566 -0.989,21.621 1.167,30.588 0.456,1.876 0.387,3.584 -0.155,5.158 -2.886,8.482 -20.4,10.144 -23.902,15.171 -2.408,3.192 -4.31,4.706 -3.306,8.908"
         style="fill:none;stroke:#1d2f48;stroke-width:0.264583px;stroke-linecap:butt;stroke-linejoin:miter;stroke-opacity:1"
         id="path42904" /><path
         d="m 299.766,104.458 c -11.501,2.53 -21.119,13.477 -21.404,24.361 -0.244,9.589 6.357,16.987 16.914,21.92 1.886,0.877 3.498,1.821 4.818,2.847 8.539,6.156 7.087,12.885 -2.388,13.756 -3.532,0.326 -8.045,-0.409 -13.225,-2.165 -10.917,-3.644 -19.479,-5.212 -25.833,-4.284 -4.617,0.739 -8.358,2.512 -10.668,5.31 -6.708,8.025 -3.172,21.059 -1.091,29.467 0.452,1.815 0.384,3.441 -0.111,4.916 -2.788,8.36 -19.741,10.295 -22.174,15.607 -1.923,3.419 -3.684,4.789 -3.14,8.829"
         style="fill:none;stroke:#1d2f48;stroke-width:0.264583px;stroke-linecap:butt;stroke-linejoin:miter;stroke-opacity:1"
         id="path42906" /><path
         d="m 299.348,104.483 c -12.024,3.552 -19.011,13.84 -19.596,24.282 -0.513,9.162 3.903,18.444 14.17,23.398 1.798,0.868 3.344,1.746 4.653,2.621 9.056,6.053 6.737,11.906 -2.289,12.407 -3.36,0.186 -7.648,-0.369 -12.625,-1.932 -10.871,-3.414 -18.924,-4.1 -24.833,-2.99 -4.52,0.85 -7.785,2.751 -10.098,5.287 -6.824,7.484 -5.354,20.498 -3.349,28.346 0.448,1.755 0.381,3.299 -0.068,4.674 -2.689,8.238 -19.082,10.447 -20.445,16.044 -1.437,3.646 -3.058,4.872 -2.974,8.749"
         style="fill:none;stroke:#1d2f48;stroke-width:0.264583px;stroke-linecap:butt;stroke-linejoin:miter;stroke-opacity:1"
         id="path42908" /></g><polygon
       class="st4"
       points=""
       id="polygon1428"
       transform="matrix(0.05976083,0,0,0.05976083,-20.598039,65.026935)" /><polygon
       class="st7"
       points=""
       id="polygon1440"
       transform="matrix(0.05976083,0,0,0.05976083,-20.598039,65.026935)" /></g><style
     type="text/css"
     id="style617">
	.st0{fill:#E0E0E3;}
	.st1{fill:#FF8200;}
	.st2{fill:#C0C0C3;}
	.st3{fill:#FF5000;}
	.st4{fill:#C2C2C3;}
	.st5{fill:#A2A2A2;}
	.st6{fill:#808083;}
	.st7{fill:#FAA940;}
	.st8{fill:#FFB600;}
	.st9{fill:#4E61AD;}
	.st10{fill:#404043;}
</style><style
     type="text/css"
     id="style711">
	.st0{fill:#E0E0E3;}
	.st1{fill:#FF8200;}
	.st2{fill:#C0C0C3;}
	.st3{fill:#FF5000;}
	.st4{fill:#C2C2C3;}
	.st5{fill:#A2A2A2;}
	.st6{fill:#808083;}
	.st7{fill:#FAA940;}
	.st8{fill:#FFB600;}
	.st9{fill:#4E61AD;}
	.st10{fill:#404043;}
</style><style
     type="text/css"
     id="style2907">
	.st0{fill:#E0E0E3;}
	.st1{fill:#FF8200;}
	.st2{fill:#C0C0C3;}
	.st3{fill:#FF5000;}
	.st4{fill:#C2C2C3;}
	.st5{fill:#A2A2A2;}
	.st6{fill:#808083;}
	.st7{fill:#FAA940;}
	.st8{fill:#FFB600;}
	.st9{fill:#4E61AD;}
	.st10{fill:#404043;}
</style></svg>
